<svg width="110" height="110" viewBox="0 0 110 110" fill="none" xmlns="http://www.w3.org/2000/svg">
<circle cx="55" cy="55" r="55" fill="black"/>
<path d="M82.6005 47.5704L82.6853 31.2653L79.0081 31.7833C82.3764 28.4362 89.6096 21 89.6096 21L78.6265 28.9057V26.5279C78.6265 26.5279 77.427 28.3272 66.6558 33.531L59.9466 34.4791L54.0491 35.1636L54.0188 35.1667C48.091 35.9239 38.9737 35.9845 38.8829 35.9845L36.6565 35.9966L31.5799 62.6095C29.1749 67.4438 26.361 70.2062 26.361 70.2062L26.8517 65.6385C26.8517 65.6385 22.7231 72.2902 18.7369 75.507C14.7477 78.7268 13 79.7052 13 79.7052C13 79.7052 20.4877 77.8545 24.1255 73.9864L23.0775 77.2547C23.0775 77.2547 24.4981 76.1885 26.158 74.8133L30.1472 88.8043L35.6055 87.3746C39.0676 86.4659 42.1784 85.851 44.85 85.539L48.4576 85.121C53.2797 84.5819 57.5961 84.9333 60.3706 85.321C63.4057 85.745 65.311 86.3084 65.3261 86.3114L67.3343 86.9172L70.7753 81.2379C71.1903 80.5927 71.7052 79.7506 72.3443 78.6662L98 36.6327L82.6005 47.5704Z" fill="#8C6FDE"/>
<path d="M70.3785 26.8066C70.3785 26.8066 67.2859 28.4847 64.3781 29.7114C61.4672 30.9351 53.9371 32.6162 53.9371 32.6162L62.1941 32.3376C62.1941 32.3345 66.0289 31.8438 70.3785 26.8066Z" fill="#8C6FDE"/>
<path d="M20.9692 85.1574C20.9692 85.1574 24.3981 81.8679 24.4677 81.6589C24.5374 81.4499 25.5158 78.8601 25.5158 78.8601C23.768 80.1202 22.7866 80.7623 22.7866 80.7623L20.9692 85.1574Z" fill="#8C6FDE"/>
<path d="M85.6174 42.8361L91.427 37.6505L85.6174 38.9287V42.8361Z" fill="#8C6FDE"/>
<path d="M65.838 62.8094C64.3023 62.7731 62.9211 62.7791 61.6762 62.8336C62.703 61.8522 63.7601 60.8981 64.8475 59.9743C68.4097 56.9513 72.3989 54.1616 76.7061 51.6839L79.8835 49.8574L79.9623 34.3822L60.2889 37.1598L54.3581 37.8474C48.191 38.6349 38.895 38.6864 38.895 38.6864L32.6674 71.3179L29.0053 74.9527L32.0161 85.5118L34.9119 84.7515C38.4952 83.8125 41.7332 83.1704 44.532 82.8463L48.1486 82.4283C58.1292 81.3136 66.1016 83.7156 66.1016 83.7156L68.4763 79.7961C68.8792 79.1751 69.385 78.3452 70.0211 77.2669L88.8161 46.4709L65.838 62.8094ZM48.1002 56.0093L41.5454 62.5156L46.1798 56.2334L48.1002 56.0093Z" fill="black"/>
<path d="M77.3241 58.7687L66.671 76.2249C66.0471 77.282 65.5564 78.0847 65.1989 78.636L65.1596 78.6996V78.6965C65.1596 78.6965 65.1596 78.6965 65.1596 78.6996L65.0202 78.7147C60.607 77.7424 55.3274 77.6122 49.1846 78.327L45.5679 78.748H45.5649C45.5619 78.748 45.5498 78.7511 45.5376 78.7511H45.5346C45.5225 78.7511 45.5104 78.7541 45.4922 78.7571C45.1469 78.7935 43.7505 78.8874 44.0746 78.0938C44.4442 77.1911 49.3936 74.5953 49.3936 74.5953L51.4472 71.8631L51.6047 71.7631L52.262 71.3482L55.179 69.5096L51.2201 71.2512L49.3178 72.0872C49.3027 72.1054 48.8302 72.6506 48.1759 73.2958C47.5368 73.9258 46.722 74.6467 45.989 75.0587C44.4957 75.8977 41.7756 76.7368 41.7756 76.7368L40.67 78.4633L35.339 80.7653L33.6882 74.9769L57.9748 50.8781L51.632 51.6142L53.0314 50.1966L53.7765 48.258L56.4663 45.6167L59.78 42.3606L55.3395 45.7288L52.9769 47.522L52.3166 48.0218C52.3166 48.0218 51.1655 49.5454 51.0414 49.6696C50.9172 49.7937 49.6722 50.5419 49.6722 50.5419C49.6722 50.5419 49.2452 51.2598 48.7302 51.9534L44.8501 52.4047L38.6285 60.8375L41.7877 44.7111C41.8544 44.3324 41.9483 43.8417 42.0755 43.239L42.1542 42.8422L42.2239 42.8997L42.3057 42.827L42.445 42.8119C45.7588 42.7059 49.3845 42.4242 53.3252 41.9668L59.3045 41.2731L75.8247 38.9408L75.7762 48.2641C75.646 48.3368 75.5188 48.4125 75.3915 48.4882C75.3461 48.5155 75.3007 48.5397 75.2552 48.567C75.1795 48.6094 75.1068 48.6548 75.0311 48.6972C75.025 48.7003 75.022 48.7033 75.0159 48.7063C74.9099 48.7699 74.8009 48.8335 74.6949 48.8972C74.6464 48.9244 74.601 48.9517 74.5525 48.9789C74.4253 49.0547 74.3011 49.1304 74.1769 49.2061C74.1739 49.2061 74.1709 49.2091 74.1709 49.2091C74.1012 49.2516 74.0315 49.294 73.9619 49.3333C73.5832 49.5605 73.2107 49.7937 72.8381 50.024C72.7836 50.0573 72.729 50.0906 72.6745 50.1269C72.4413 50.2723 72.2111 50.4208 71.9809 50.5661C71.8779 50.6328 71.7749 50.6994 71.6719 50.7661C71.5689 50.8327 71.4659 50.8993 71.366 50.966C71.263 51.0326 71.163 51.0992 71.0601 51.1659C70.9601 51.2325 70.8571 51.2992 70.7572 51.3658C68.8428 51.5021 67.1133 51.0387 67.1133 51.0387L63.7087 53.5103L59.2318 54.1646L56.5632 55.8033L51.7199 58.7748L55.079 57.2754L59.3227 55.3792L62.6818 55.146C62.6818 55.146 60.4434 56.918 60.3041 56.9664C60.1647 57.0119 58.2201 57.7812 58.1595 57.8055L60.9099 57.4329C60.9099 57.4329 63.6844 55.2248 65.3443 54.31C65.7018 54.1131 66.0107 53.9738 66.2258 53.9344C66.6801 53.8466 67.0648 53.786 67.3647 53.7436C67.2314 53.8405 67.0981 53.9405 66.9648 54.0404C66.8316 54.1404 66.6983 54.2403 66.568 54.3373C66.2954 54.5432 66.0228 54.7522 65.7532 54.9612C65.6745 55.0218 65.5957 55.0824 65.52 55.143C65.5018 55.1551 65.4837 55.1702 65.4685 55.1854C65.4049 55.2338 65.3413 55.2853 65.2777 55.3368C65.2656 55.3459 65.2504 55.355 65.2383 55.3671C65.1777 55.4126 65.1202 55.461 65.0596 55.5065C64.8688 55.6579 64.6779 55.8094 64.4901 55.9638C64.4356 56.0062 64.3811 56.0517 64.3266 56.0941C64.2993 56.1183 64.269 56.1395 64.2418 56.1637C64.166 56.2243 64.0903 56.2849 64.0146 56.3485C63.9177 56.4273 63.8238 56.506 63.7268 56.5848C63.6663 56.6332 63.6057 56.6847 63.5481 56.7332C63.3573 56.8937 63.1634 57.0543 62.9756 57.2148C62.9332 57.2512 62.8908 57.2845 62.8515 57.3208C62.6425 57.4995 62.4365 57.6752 62.2305 57.8539C62.179 57.8994 62.1275 57.9418 62.076 57.9872C62.0094 58.0448 61.9428 58.1053 61.8761 58.1629C61.8428 58.1932 61.8064 58.2235 61.7731 58.2538C61.6853 58.3295 61.5974 58.4082 61.5096 58.487C61.4521 58.5355 61.3975 58.587 61.343 58.6354C61.0371 58.9111 60.7311 59.1897 60.4282 59.4684C60.3646 59.5259 60.301 59.5865 60.2374 59.6441C60.2314 59.6501 60.2253 59.6532 60.2192 59.6623C60.1677 59.7107 60.1132 59.7592 60.0617 59.8076C59.9769 59.8864 59.8951 59.9652 59.8103 60.0439C59.7376 60.1136 59.6619 60.1832 59.5892 60.2529C59.5105 60.3286 59.4347 60.4013 59.356 60.4771C59.2651 60.5619 59.1773 60.6497 59.0864 60.7345C59.0228 60.7981 58.9562 60.8587 58.8925 60.9223C58.841 60.9708 58.7926 61.0192 58.7411 61.0707C58.729 61.0829 58.7138 61.095 58.7017 61.1101C58.6896 61.1222 58.6745 61.1343 58.6623 61.1495C58.6381 61.1737 58.6108 61.198 58.5866 61.2252C58.5351 61.2767 58.4836 61.3252 58.4321 61.3767C58.3291 61.4797 58.2262 61.5826 58.1232 61.6856C58.0899 61.7189 58.0596 61.7492 58.0262 61.7826C57.9929 61.8159 57.9626 61.8462 57.9323 61.8795C57.8899 61.9219 57.8475 61.9673 57.8051 62.0097C57.7536 62.0612 57.7021 62.1157 57.6507 62.1672C57.1478 62.6822 56.6511 63.2032 56.1634 63.7302C56.0998 63.7999 56.0362 63.8665 55.9726 63.9362C55.8332 64.0876 55.6909 64.2421 55.5546 64.3966C55.5425 64.4087 55.5303 64.4208 55.5213 64.4329C55.4758 64.4844 55.4274 64.5359 55.3819 64.5874C55.2214 64.7661 55.0608 64.9479 54.9003 65.1296C54.8306 65.2084 54.7579 65.2901 54.6883 65.3719C54.6186 65.4537 54.5489 65.5325 54.4793 65.6143C54.4611 65.6355 54.4429 65.6536 54.4278 65.6748C54.3611 65.7506 54.2945 65.8293 54.2279 65.905C54.134 66.0141 54.0431 66.1201 53.9522 66.2291C53.9189 66.2685 53.8856 66.3079 53.8553 66.3442C53.8402 66.3624 53.825 66.3806 53.8099 66.3988C53.7463 66.4745 53.6826 66.5502 53.619 66.6259C53.5342 66.7259 53.4524 66.8259 53.3707 66.9258C53.3313 66.9712 53.2949 67.0167 53.2586 67.0621C53.1919 67.1439 53.1253 67.2227 53.0587 67.3044C52.9375 67.4529 52.8164 67.6013 52.6952 67.7527C52.6073 67.8618 52.5225 67.9708 52.4347 68.0799L52.574 68.0647L58.0717 67.15C59.6104 66.9712 61.5217 66.9016 63.8026 66.944C65.0172 67.7921 63.8026 69.0037 63.8026 69.0037L59.4681 71.2421L57.5991 73.9955L60.9704 71.2997L62.9575 70.4576L65.1808 69.5156L66.3742 66.5593L77.3241 58.7687Z" fill="white"/>
<path d="M77.3241 58.7687L64.6417 71.857L65.1808 69.5065V69.5035L66.3773 66.5502L77.3241 58.7687Z" fill="#B3B3B3"/>
<path d="M41.7694 76.7367C41.7694 76.7367 44.4895 75.8977 45.9828 75.0586C46.7158 74.6467 47.5276 73.9258 48.1697 73.2958C48.824 72.6506 49.2965 72.1054 49.3117 72.0872L51.2139 71.2512L55.1728 69.5095C55.091 69.5277 49.7509 70.7211 46.219 72.6263C44.5501 72.9444 43.4869 73.1928 43.4536 73.1988L35.3358 80.7653L40.6669 78.4632L41.7694 76.7367Z" fill="#999999"/>
<path d="M64.6415 71.857C64.0175 71.6813 63.336 71.548 62.6151 71.448C62.085 71.3753 61.5367 71.3239 60.9673 71.2875L57.596 73.9833L59.4649 71.23L63.7994 68.9915C63.7994 68.9915 65.014 67.7799 63.7994 66.9318C64.284 68.1949 58.7743 70.5636 58.7743 70.5636L58.5471 71.23C56.8236 71.2451 55.0365 71.3723 53.316 71.5571C52.7344 71.6177 52.1589 71.6873 51.5986 71.76L51.441 71.86L49.3874 74.5922C49.3874 74.5922 44.441 77.188 44.0684 78.0907C43.7443 78.8843 45.1407 78.7873 45.486 78.754C45.5012 78.751 45.5163 78.751 45.5284 78.748H45.5315C45.5466 78.7449 45.5557 78.7449 45.5587 78.7449H45.5617L49.1784 78.3239C55.3212 77.6121 60.6008 77.7423 65.014 78.7116L65.1534 78.6965C65.1534 78.6965 65.1534 78.6965 65.1534 78.6934V78.6965L65.1927 78.6329C65.5502 78.0816 66.0409 77.2789 66.6648 76.2218L77.3179 58.7656L64.6415 71.857Z" fill="#999999"/>
<path d="M48.7272 51.9473C49.2391 51.2537 49.6692 50.5358 49.6692 50.5358C49.6692 50.5358 50.9141 49.7907 51.0383 49.6634C51.1625 49.5393 52.3135 48.0157 52.3135 48.0157L52.9739 47.5159L55.3365 45.7227L59.777 42.3544L53.1344 45.9287C48.2274 46.377 44.3533 46.6405 44.3533 46.6405L38.6285 60.8253L44.8501 52.3926L48.7272 51.9473Z" fill="#999999"/>
<path d="M56.4631 45.6136L53.7734 48.2549L53.0282 50.1935L51.6288 51.6111L57.9716 50.875C62.4666 46.4133 70.2572 43.669 70.3784 43.6236C67.2949 44.3687 62.1092 45.026 57.175 45.5379C56.9357 45.5652 56.6994 45.5894 56.4631 45.6136Z" fill="#999999"/>
<path d="M52.4346 68.0707C52.5225 67.9617 52.6073 67.8526 52.6951 67.7436C52.8163 67.5952 52.9344 67.4437 53.0586 67.2953C53.1253 67.2135 53.1919 67.1317 53.2585 67.053C53.2949 67.0075 53.3343 66.9621 53.3706 66.9167C53.4524 66.8167 53.5372 66.7167 53.619 66.6168C53.6826 66.5411 53.7462 66.4653 53.8098 66.3896C53.825 66.3714 53.8401 66.3533 53.8553 66.3351C53.8886 66.2957 53.9189 66.2563 53.9522 66.22C54.043 66.1109 54.1339 66.0049 54.2278 65.8959C54.2945 65.8202 54.3581 65.7414 54.4277 65.6657C54.4459 65.6445 54.4611 65.6263 54.4792 65.6051C54.5489 65.5233 54.6186 65.4446 54.6882 65.3628C54.7579 65.281 54.8276 65.2022 54.9003 65.1205C55.0608 64.9387 55.2213 64.76 55.3819 64.5783C55.4273 64.5268 55.4758 64.4753 55.5212 64.4238C55.5333 64.4117 55.5424 64.3996 55.5545 64.3874C55.6939 64.233 55.8332 64.0815 55.9725 63.927C56.0361 63.8574 56.0997 63.7907 56.1634 63.7211C56.651 63.194 57.1478 62.673 57.6506 62.1581C57.7021 62.1066 57.7536 62.0521 57.8051 62.0006C57.8475 61.9582 57.8899 61.9127 57.9323 61.8703C57.9626 61.837 57.9959 61.8067 58.0262 61.7734C58.0595 61.7401 58.0898 61.7098 58.1231 61.6765C58.2261 61.5735 58.3291 61.4705 58.4321 61.3675C58.4836 61.316 58.5351 61.2645 58.5866 61.2161C58.6108 61.1888 58.6381 61.1646 58.6623 61.1403C58.6744 61.1282 58.6895 61.1131 58.7017 61.101C58.7138 61.0889 58.7289 61.0767 58.741 61.0616C58.7925 61.0101 58.841 60.9616 58.8925 60.9132C58.9561 60.8496 59.0227 60.7859 59.0863 60.7254C59.1742 60.6375 59.2651 60.5527 59.3559 60.4679C59.4347 60.3922 59.5104 60.3195 59.5892 60.2438C59.6619 60.1741 59.7376 60.1044 59.8103 60.0348C59.8921 59.956 59.9769 59.8772 60.0617 59.7985C60.1132 59.75 60.1647 59.7016 60.2192 59.6531C60.2253 59.647 60.2313 59.641 60.2374 59.6349C60.301 59.5743 60.3646 59.5168 60.4282 59.4592C60.7311 59.1806 61.037 58.9019 61.343 58.6263C61.4005 58.5748 61.455 58.5263 61.5096 58.4778C61.5974 58.3991 61.6852 58.3234 61.7731 58.2446C61.8064 58.2143 61.8427 58.184 61.8761 58.1537C61.9427 58.0962 62.0093 58.0356 62.076 57.9781C62.1275 57.9326 62.179 57.8872 62.2305 57.8448C62.4364 57.6661 62.6424 57.4874 62.8514 57.3117C62.8938 57.2753 62.9362 57.242 62.9756 57.2057C63.1664 57.0451 63.3572 56.8846 63.5481 56.7241C63.6087 56.6756 63.6662 56.6241 63.7268 56.5756C63.8237 56.4969 63.9176 56.4181 64.0145 56.3394C64.0903 56.2788 64.166 56.2152 64.2417 56.1546C64.269 56.1304 64.2993 56.1092 64.3265 56.0849C64.3811 56.0395 64.4356 55.9971 64.4901 55.9547C64.6779 55.8002 64.8687 55.6488 65.0595 55.4973C65.1171 55.4488 65.1777 55.4034 65.2383 55.358C65.2504 55.3459 65.2655 55.3368 65.2776 55.3277C65.3412 55.2762 65.4049 55.2277 65.4685 55.1762C65.4866 55.1611 65.5048 55.149 65.52 55.1338C65.5987 55.0732 65.6744 55.0127 65.7532 54.9521C66.0228 54.7431 66.2954 54.5341 66.568 54.3281C66.7013 54.2281 66.8315 54.1282 66.9648 54.0313C67.0981 53.9313 67.2313 53.8313 67.3646 53.7344C67.0648 53.7768 66.6801 53.8374 66.2257 53.9252C66.0107 53.9677 65.7017 54.104 65.3443 54.3008C63.6844 55.2156 60.9098 57.4237 60.9098 57.4237L58.1595 57.7963C58.22 57.7721 60.1647 57.0027 60.304 56.9573C60.4433 56.9119 62.6818 55.1368 62.6818 55.1368L59.3226 55.3701L55.079 57.2662C55.0214 57.3238 54.9669 57.3783 54.9093 57.4359C54.5035 57.8418 54.1036 58.2476 53.7099 58.6475C46.8734 65.599 41.7665 71.5692 41.7665 71.5692L43.4476 73.1958C48.7059 69.2975 52.5679 68.0556 52.5679 68.0556L52.4346 68.0707Z" fill="#999999"/>
<path d="M59.3347 53.1196L51.7228 58.7687L56.5662 55.7972L59.2348 54.1585L63.7116 53.5042L67.1163 51.0326C67.1163 51.0326 68.8458 51.496 70.7601 51.3597C70.8601 51.2931 70.9631 51.2264 71.063 51.1598C71.166 51.0932 71.266 51.0265 71.369 50.9599C71.472 50.8932 71.5719 50.8266 71.6749 50.76C71.7779 50.6933 71.8809 50.6267 71.9839 50.56C72.2141 50.4116 72.4443 50.2662 72.6775 50.1208C72.732 50.0875 72.7866 50.0512 72.8411 50.0179C73.2136 49.7846 73.5862 49.5544 73.9648 49.3272C74.0345 49.2848 74.1042 49.2424 74.1738 49.2031C74.1769 49.2 74.1769 49.2 74.1799 49.2C74.3041 49.1243 74.4313 49.0486 74.5555 48.9728C74.6009 48.9456 74.6494 48.9153 74.6979 48.8911C74.8039 48.8275 74.9129 48.7638 75.0189 48.7002C75.025 48.6972 75.028 48.6942 75.0341 48.6911C75.1098 48.6457 75.1825 48.6033 75.2582 48.5609C75.3037 48.5336 75.3491 48.5064 75.3945 48.4821C75.5217 48.4064 75.652 48.3337 75.7792 48.258L70.3815 43.6297C70.0241 43.8962 69.6636 44.1719 69.3093 44.4475C66.0046 47.004 62.5879 50.033 59.3347 53.1196Z" fill="#999999"/>
<path d="M49.6691 52.2956L49.1935 52.962C49.1935 52.962 50.2416 52.541 50.2719 52.4956C50.284 52.4774 50.3567 52.2956 50.4385 52.0897C50.4869 51.9715 50.5354 51.8443 50.5778 51.7322C50.6414 51.5657 50.6929 51.4384 50.6929 51.4384L50.0235 51.7959L50.0205 51.7989L49.6691 52.2956Z" fill="#999999"/>
<path d="M66.0894 52.962L67.5796 52.7137L67.8613 52.226H67.0829L66.0894 52.962Z" fill="#999999"/>
<path d="M69.5394 52.1836C69.2244 52.1866 68.7307 52.226 68.7307 52.226L69.0336 52.5349L69.388 52.9014L69.4455 52.962L69.503 52.8348L69.7878 52.2017C69.7605 52.1866 69.6666 52.1836 69.5394 52.1836Z" fill="#999999"/>
<path d="M42.1844 79.2387C42.2087 78.8691 42.2965 78.4178 42.5449 77.9302C41.8603 78.3572 41.3575 79.2569 41.2818 79.4023C41.2757 79.4144 41.2727 79.4235 41.2727 79.4235C41.2727 79.4235 41.0758 79.5325 40.8153 79.6779C40.3064 79.9626 39.5613 80.3867 39.6249 80.3867C39.7188 80.3867 42.1117 80.2625 42.2056 80.1989C42.2571 80.1656 42.1723 79.8657 42.1784 79.4053C42.1784 79.3568 42.1814 79.2993 42.1844 79.2387Z" fill="#999999"/>
<path d="M41.7879 44.7051L38.6286 60.8315L44.3534 46.6467L42.1544 42.8392L42.0756 43.236C41.9484 43.8357 41.8545 44.3264 41.7879 44.7051Z" fill="#B3B3B3"/>
<path d="M41.7696 71.5693L33.6852 74.9739L35.333 80.7624L43.4537 73.1959L41.7696 71.5693Z" fill="#B3B3B3"/>
<path d="M70.3786 43.6237L75.8278 38.9287L75.7793 48.2551L70.3786 43.6237Z" fill="#B3B3B3"/>
<path d="M56.5629 55.7972L51.7195 58.7686L57.0627 55.3035L59.2315 54.1585L56.5629 55.7972Z" fill="black"/>
<path d="M59.3254 55.3701L54.9394 57.4238L54.9121 57.4359L51.7195 58.7687L55.0817 57.2663L59.3254 55.3701Z" fill="black"/>
<path d="M67.8611 52.226L67.5794 52.7137L66.0892 52.9621L67.0827 52.226H67.8611Z" fill="black"/>
<path d="M69.7876 52.1987L69.5029 52.8318L69.3878 52.9014L69.0334 52.5349L68.7305 52.226C68.7305 52.226 69.2242 52.1866 69.5392 52.1836C69.6664 52.1836 69.7603 52.1866 69.7876 52.1987Z" fill="black"/>
<path d="M42.5478 77.9332C42.2994 78.4178 42.2086 78.8691 42.1873 79.2417C42.1843 79.2992 42.1813 79.3568 42.1813 79.4113L40.8182 79.6809C41.0757 79.5355 41.2756 79.4265 41.2756 79.4265C41.2756 79.4265 41.2786 79.4204 41.2847 79.4053C41.3604 79.2599 41.8632 78.3603 42.5478 77.9332Z" fill="black"/>
<path d="M65.4227 66.4229L65.2804 66.7683C65.2804 66.7683 65.2077 66.635 64.9835 66.432C65.1319 66.4199 65.2804 66.4199 65.4227 66.4229Z" fill="black"/>
<path d="M50.6958 51.4384C50.6958 51.4384 50.3414 52.329 50.2747 52.4956L50.0233 51.7989L50.0263 51.7959L50.6958 51.4384Z" fill="white"/>
<path d="M67.0827 52.226H67.8611L66.0892 52.962L67.0827 52.226Z" fill="white"/>
<path d="M69.0332 52.538L68.7303 52.229C68.7303 52.229 69.2241 52.1896 69.5391 52.1866C69.53 52.1927 69.5239 52.1987 69.5179 52.2018C69.3543 52.3108 69.1938 52.4259 69.0332 52.538Z" fill="white"/>
<path d="M42.5477 77.9332C42.2993 78.4178 42.2085 78.8691 42.1873 79.2417C42.1691 79.2447 42.154 79.2478 42.1358 79.2508C42.0782 79.2599 42.0207 79.272 41.9631 79.2811C41.8874 79.2932 41.8147 79.3084 41.739 79.3205C41.6875 79.3296 41.636 79.3386 41.5845 79.3477C41.4845 79.3659 41.3876 79.3841 41.2877 79.4023C41.3604 79.2599 41.8632 78.3603 42.5477 77.9332Z" fill="white"/>
<path d="M66.2284 53.9253L61.1669 57.7963H58.1591H58.1622L60.9125 57.4238C60.9125 57.4238 63.6871 55.2156 65.347 54.3009C65.8043 54.107 66.2011 53.9374 66.2284 53.9253Z" fill="white"/>
<path d="M53.4005 71.4481L53.3157 71.5541L50.1959 75.4464C50.1959 75.4464 45.4191 76.9094 44.0682 78.0907C44.4377 77.188 49.3871 74.5922 49.3871 74.5922L51.4408 71.86L51.5983 71.7601L52.2556 71.3451L53.4005 71.4481Z" fill="white"/>
<path d="M62.9571 70.4455L62.6149 71.4481L57.5988 73.9833L60.9701 71.2875L62.9571 70.4455Z" fill="white"/>
<path d="M65.7469 65.6475L65.4228 66.4229L65.2804 66.7682C65.2804 66.7682 65.2077 66.635 64.9835 66.432C64.8472 66.3078 64.6504 66.1564 64.3777 65.9898C64.72 65.5263 65.7469 65.6475 65.7469 65.6475Z" fill="white"/>
<path d="M59.7737 42.3575L57.1748 45.5379L54.7061 48.5609L54.17 50.2389L51.6287 51.6111L53.0281 50.1935L53.7732 48.255L56.463 45.6137L59.7737 42.3575Z" fill="white"/>
<path d="M62.6814 55.1368L59.3343 56.0092L53.7125 58.6475L51.7194 58.7686L55.0816 57.2662L59.3253 55.3701L62.6814 55.1368Z" fill="white"/>
</svg>
