<svg width="168" height="135" viewBox="0 0 168 135" fill="none" xmlns="http://www.w3.org/2000/svg">
<path d="M137.563 52.5157L137.731 20.2891L130.463 21.3128C137.12 14.6975 151.417 0 151.417 0L129.709 15.6254V10.9258C129.709 10.9258 127.338 14.4819 106.049 24.7672L92.7885 26.641L81.1323 27.994L81.0725 28C69.3564 29.4967 51.3363 29.6164 51.1567 29.6164L46.7565 29.6404L36.7227 82.2399C31.9692 91.7947 26.4075 97.2546 26.4075 97.2546L27.3774 88.2266C27.3774 88.2266 19.2174 101.374 11.3389 107.731C3.45435 114.095 0 116.029 0 116.029C0 116.029 14.7992 112.371 21.9893 104.726L19.9179 111.186C19.9179 111.186 22.7257 109.078 26.0064 106.36L33.891 134.013L44.6791 131.188C51.5219 129.391 57.6703 128.176 62.9506 127.56L70.0808 126.733C79.6117 125.668 88.1428 126.362 93.6267 127.128C99.6254 127.967 103.391 129.08 103.421 129.086L107.39 130.283L114.191 119.058C115.011 117.783 116.029 116.119 117.292 113.976L168 30.8976L137.563 52.5157Z" fill="#8C6FDE"/>
<path d="M113.407 11.4766C113.407 11.4766 107.294 14.7933 101.547 17.2179C95.7939 19.6365 80.9109 22.9592 80.9109 22.9592L97.2308 22.4084C97.2308 22.4024 104.81 21.4325 113.407 11.4766Z" fill="#8C6FDE"/>
<path d="M15.751 126.805C15.751 126.805 22.528 120.304 22.6657 119.891C22.8034 119.477 24.7371 114.359 24.7371 114.359C21.2828 116.849 19.3431 118.118 19.3431 118.118L15.751 126.805Z" fill="#8C6FDE"/>
<path d="M143.526 43.1584L155.009 32.9091L143.526 35.4355V43.1584Z" fill="#8C6FDE"/>
<path d="M104.433 82.635C101.398 82.5632 98.6676 82.5752 96.207 82.6829C98.2365 80.7432 100.326 78.8574 102.475 77.0314C109.516 71.0567 117.4 65.5429 125.913 60.6457L132.193 57.0357L132.349 26.4494L93.4651 31.9393L81.7431 33.2983C69.5541 34.8548 51.1807 34.9566 51.1807 34.9566L38.872 99.4518L31.634 106.636L37.5849 127.506L43.3082 126.003C50.3905 124.147 56.7903 122.878 62.3221 122.237L69.4703 121.411C89.1966 119.208 104.954 123.956 104.954 123.956L109.647 116.209C110.444 114.981 111.443 113.341 112.701 111.21L149.848 50.3425L104.433 82.635ZM69.3745 69.1948L56.4192 82.0543L65.5789 69.6378L69.3745 69.1948Z" fill="black"/>
<path d="M127.134 74.6487L106.079 109.15C104.846 111.24 103.876 112.826 103.169 113.916L103.092 114.041V114.035C103.092 114.035 103.092 114.035 103.092 114.041L102.816 114.071C94.0936 112.15 83.6587 111.892 71.5176 113.305L64.3694 114.137H64.3634C64.3574 114.137 64.3335 114.143 64.3095 114.143H64.3036C64.2796 114.143 64.2557 114.149 64.2197 114.155C63.5373 114.227 60.7774 114.413 61.4179 112.844C62.1483 111.06 71.9307 105.929 71.9307 105.929L75.9897 100.529L76.301 100.332L77.6001 99.5116L83.3653 95.8777L75.5407 99.3201L71.781 100.972C71.7511 101.008 70.8171 102.086 69.524 103.361C68.2608 104.606 66.6504 106.031 65.2016 106.845C62.2501 108.504 56.874 110.162 56.874 110.162L54.6888 113.575L44.1522 118.124L40.8894 106.684L88.8911 59.0532L76.3549 60.508L79.1207 57.7062L80.5935 53.8747L85.9097 48.6543L92.4592 42.2185L83.6826 48.8758L79.013 52.4199L77.7079 53.4077C77.7079 53.4077 75.4329 56.4191 75.1875 56.6645C74.942 56.91 72.4814 58.3887 72.4814 58.3887C72.4814 58.3887 71.6373 59.8076 70.6196 61.1785L62.9506 62.0705L50.6538 78.7376L56.898 46.8642C57.0297 46.1159 57.2153 45.146 57.4667 43.9547L57.6224 43.1704L57.76 43.2841L57.9217 43.1405L58.1971 43.1105C64.7466 42.901 71.9127 42.3442 79.7015 41.4402L91.5193 40.0693L124.171 35.4595L124.075 53.8867C123.818 54.0304 123.566 54.18 123.315 54.3297C123.225 54.3836 123.135 54.4315 123.045 54.4853C122.896 54.5692 122.752 54.659 122.602 54.7428C122.59 54.7488 122.584 54.7547 122.573 54.7607C122.363 54.8865 122.147 55.0122 121.938 55.1379C121.842 55.1918 121.752 55.2457 121.657 55.2995C121.405 55.4492 121.16 55.5989 120.914 55.7485C120.908 55.7485 120.902 55.7545 120.902 55.7545C120.765 55.8383 120.627 55.9222 120.489 56C119.741 56.449 119.004 56.91 118.268 57.365C118.16 57.4308 118.053 57.4967 117.945 57.5685C117.484 57.8559 117.029 58.1492 116.574 58.4366C116.37 58.5683 116.167 58.7 115.963 58.8317C115.76 58.9634 115.556 59.0951 115.358 59.2268C115.155 59.3586 114.957 59.4903 114.754 59.622C114.556 59.7537 114.353 59.8854 114.155 60.0171C110.372 60.2865 106.953 59.3705 106.953 59.3705L100.224 64.2557L91.3756 65.5488L86.1013 68.7877L76.5285 74.6607L83.1678 71.6972L91.5552 67.9495L98.1945 67.4886C98.1945 67.4886 93.7703 70.9908 93.4949 71.0866C93.2195 71.1764 89.376 72.697 89.2563 72.7449L94.6923 72.0085C94.6923 72.0085 100.176 67.6442 103.457 65.8362C104.163 65.4471 104.774 65.1717 105.199 65.0939C106.097 64.9202 106.857 64.8005 107.45 64.7167C107.187 64.9083 106.923 65.1058 106.66 65.3034C106.396 65.501 106.133 65.6985 105.876 65.8901C105.337 66.2972 104.798 66.7103 104.265 67.1234C104.109 67.2431 103.954 67.3628 103.804 67.4826C103.768 67.5065 103.732 67.5364 103.702 67.5664C103.577 67.6622 103.451 67.7639 103.325 67.8657C103.301 67.8837 103.271 67.9016 103.247 67.9256C103.128 68.0154 103.014 68.1112 102.894 68.201C102.517 68.5003 102.14 68.7996 101.769 69.105C101.661 69.1888 101.553 69.2786 101.445 69.3624C101.391 69.4103 101.332 69.4522 101.278 69.5001C101.128 69.6198 100.978 69.7396 100.829 69.8653C100.637 70.0209 100.452 70.1766 100.26 70.3323C100.14 70.428 100.02 70.5298 99.9067 70.6256C99.5296 70.9429 99.1464 71.2602 98.7752 71.5775C98.6914 71.6493 98.6076 71.7152 98.5298 71.787C98.1167 72.1403 97.7096 72.4875 97.3025 72.8407C97.2007 72.9305 97.0989 73.0143 96.9972 73.1041C96.8655 73.2179 96.7338 73.3376 96.602 73.4514C96.5362 73.5112 96.4643 73.5711 96.3985 73.631C96.2249 73.7806 96.0513 73.9363 95.8776 74.0919C95.7639 74.1877 95.6561 74.2895 95.5484 74.3853C94.9437 74.9301 94.3391 75.4809 93.7404 76.0316C93.6147 76.1454 93.4889 76.2651 93.3632 76.3789C93.3512 76.3908 93.3393 76.3968 93.3273 76.4148C93.2255 76.5106 93.1178 76.6064 93.016 76.7021C92.8483 76.8578 92.6867 77.0135 92.5191 77.1691C92.3754 77.3068 92.2257 77.4445 92.0821 77.5822C91.9264 77.7319 91.7767 77.8756 91.6211 78.0252C91.4415 78.1928 91.2678 78.3665 91.0882 78.5341C90.9625 78.6598 90.8308 78.7795 90.7051 78.9053C90.6033 79.0011 90.5075 79.0969 90.4058 79.1986C90.3818 79.2226 90.3519 79.2465 90.3279 79.2764C90.304 79.3004 90.2741 79.3243 90.2501 79.3543C90.2022 79.4022 90.1483 79.4501 90.1004 79.5039C89.9987 79.6057 89.8969 79.7015 89.7951 79.8033C89.5916 80.0068 89.388 80.2104 89.1845 80.4139C89.1186 80.4798 89.0587 80.5397 88.9929 80.6055C88.927 80.6714 88.8672 80.7312 88.8073 80.7971C88.7235 80.8809 88.6397 80.9707 88.5559 81.0545C88.4541 81.1563 88.3523 81.2641 88.2505 81.3658C87.2567 82.3836 86.2749 83.4133 85.311 84.455C85.1853 84.5927 85.0596 84.7244 84.9339 84.8621C84.6585 85.1614 84.3771 85.4667 84.1077 85.7721C84.0838 85.796 84.0598 85.82 84.0419 85.8439C83.9521 85.9457 83.8563 86.0475 83.7665 86.1492C83.4492 86.5024 83.1319 86.8617 82.8146 87.2209C82.6769 87.3765 82.5332 87.5382 82.3955 87.6998C82.2578 87.8614 82.1201 88.0171 81.9824 88.1787C81.9465 88.2206 81.9106 88.2566 81.8806 88.2985C81.7489 88.4481 81.6172 88.6038 81.4855 88.7535C81.2999 88.969 81.1203 89.1785 80.9407 89.394C80.8749 89.4719 80.809 89.5497 80.7491 89.6215C80.7192 89.6575 80.6893 89.6934 80.6593 89.7293C80.5336 89.879 80.4079 90.0286 80.2822 90.1783C80.1145 90.3759 79.9529 90.5734 79.7913 90.771C79.7134 90.8608 79.6416 90.9506 79.5698 91.0404C79.438 91.202 79.3063 91.3577 79.1746 91.5193C78.9352 91.8127 78.6957 92.106 78.4562 92.4054C78.2826 92.6209 78.115 92.8364 77.9414 93.0519L78.2168 93.022L89.0827 91.214C92.124 90.8608 95.9016 90.7231 100.41 90.8069C102.81 92.4832 100.41 94.8779 100.41 94.8779L91.8426 99.3021L88.1488 104.744L94.812 99.4159L98.7393 97.7515L103.134 95.8897L105.492 90.0466L127.134 74.6487Z" fill="white"/>
<path d="M127.135 74.6487L102.068 100.517L103.134 95.8717V95.8657L105.499 90.0286L127.135 74.6487Z" fill="#B3B3B3"/>
<path d="M56.8621 110.162C56.8621 110.162 62.2382 108.504 65.1896 106.845C66.6384 106.031 68.2429 104.606 69.5121 103.361C70.8052 102.086 71.7391 101.008 71.7691 100.972L75.5287 99.32L83.3534 95.8776C83.1918 95.9135 72.6371 98.2723 65.6566 102.038C62.3579 102.667 60.2566 103.157 60.1907 103.169L44.1462 118.124L54.6829 113.574L56.8621 110.162Z" fill="#999999"/>
<path d="M102.068 100.517C100.835 100.17 99.4878 99.9067 98.063 99.7091C97.0153 99.5654 95.9317 99.4636 94.8062 99.3918L88.1429 104.72L91.8367 99.2781L100.404 94.8539C100.404 94.8539 102.804 92.4592 100.404 90.7829C101.362 93.2793 90.4718 97.961 90.4718 97.961L90.0228 99.2781C86.6163 99.308 83.0841 99.5594 79.6837 99.9246C78.5342 100.044 77.3967 100.182 76.2892 100.326L75.9779 100.523L71.9189 105.923C71.9189 105.923 62.1425 111.054 61.4061 112.838C60.7655 114.407 63.5254 114.215 64.2079 114.149C64.2379 114.143 64.2678 114.143 64.2917 114.137H64.2977C64.3277 114.131 64.3456 114.131 64.3516 114.131H64.3576L71.5058 113.299C83.6469 111.892 94.0818 112.15 102.804 114.065L103.08 114.035C103.08 114.035 103.08 114.035 103.08 114.029V114.035L103.158 113.91C103.864 112.82 104.834 111.234 106.067 109.144L127.123 74.6426L102.068 100.517Z" fill="#999999"/>
<path d="M70.6137 61.1665C71.6255 59.7955 72.4756 58.3767 72.4756 58.3767C72.4756 58.3767 74.9362 56.9039 75.1816 56.6525C75.4271 56.407 77.702 53.3957 77.702 53.3957L79.0071 52.4079L83.6768 48.8637L92.4534 42.2065L79.3244 49.2708C69.6259 50.1568 61.9689 50.6777 61.9689 50.6777L50.6539 78.7136L62.9507 62.0465L70.6137 61.1665Z" fill="#999999"/>
<path d="M85.9038 48.6482L80.5876 53.8686L79.1149 57.7002L76.349 60.502L88.8852 59.0472C97.7696 50.2287 113.167 44.8047 113.407 44.7149C107.312 46.1876 97.0631 47.4868 87.3107 48.4985C86.8378 48.5524 86.3708 48.6003 85.9038 48.6482Z" fill="#999999"/>
<path d="M77.9415 93.0339C78.1151 92.8184 78.2827 92.6028 78.4563 92.3873C78.6958 92.094 78.9293 91.7946 79.1747 91.5013C79.3064 91.3397 79.4381 91.178 79.5698 91.0224C79.6417 90.9326 79.7195 90.8428 79.7914 90.753C79.953 90.5554 80.1206 90.3578 80.2823 90.1603C80.408 90.0106 80.5337 89.8609 80.6594 89.7113C80.6894 89.6753 80.7193 89.6394 80.7492 89.6035C80.8151 89.5257 80.875 89.4478 80.9408 89.376C81.1204 89.1605 81.3 88.9509 81.4856 88.7354C81.6173 88.5857 81.743 88.4301 81.8807 88.2804C81.9166 88.2385 81.9466 88.2026 81.9825 88.1607C82.1202 87.999 82.2579 87.8434 82.3956 87.6817C82.5333 87.5201 82.671 87.3645 82.8147 87.2028C83.132 86.8436 83.4493 86.4904 83.7666 86.1312C83.8564 86.0294 83.9521 85.9276 84.042 85.8259C84.0659 85.8019 84.0839 85.778 84.1078 85.754C84.3832 85.4487 84.6586 85.1493 84.934 84.844C85.0597 84.7063 85.1854 84.5746 85.3111 84.4369C86.275 83.3952 87.2568 82.3655 88.2506 81.3478C88.3524 81.246 88.4542 81.1382 88.5559 81.0365C88.6398 80.9527 88.7236 80.8628 88.8074 80.779C88.8673 80.7132 88.9331 80.6533 88.993 80.5875C89.0588 80.5216 89.1187 80.4617 89.1846 80.3959C89.3881 80.1923 89.5917 79.9888 89.7952 79.7852C89.897 79.6835 89.9988 79.5817 90.1005 79.4859C90.1484 79.432 90.2023 79.3841 90.2502 79.3362C90.2741 79.3123 90.3041 79.2824 90.328 79.2584C90.352 79.2345 90.3819 79.2105 90.4059 79.1806C90.5076 79.0788 90.6034 78.983 90.7052 78.8872C90.8309 78.7615 90.9626 78.6358 91.0883 78.516C91.262 78.3424 91.4416 78.1748 91.6212 78.0072C91.7768 77.8575 91.9265 77.7138 92.0821 77.5642C92.2258 77.4265 92.3755 77.2888 92.5192 77.1511C92.6808 76.9954 92.8484 76.8398 93.0161 76.6841C93.1178 76.5883 93.2196 76.4925 93.3274 76.3967C93.3394 76.3848 93.3513 76.3728 93.3633 76.3608C93.489 76.2411 93.6148 76.1273 93.7405 76.0136C94.3391 75.4628 94.9438 74.912 95.5485 74.3672C95.6622 74.2654 95.77 74.1697 95.8777 74.0739C96.0514 73.9182 96.225 73.7686 96.3986 73.6129C96.4644 73.553 96.5363 73.4932 96.6021 73.4333C96.7338 73.3196 96.8655 73.1998 96.9973 73.0861C97.099 72.9963 97.2008 72.9065 97.3026 72.8227C97.7097 72.4694 98.1168 72.1162 98.5299 71.769C98.6137 71.6971 98.6975 71.6313 98.7753 71.5594C99.1525 71.2421 99.5297 70.9249 99.9068 70.6076C100.027 70.5118 100.14 70.41 100.26 70.3142C100.452 70.1585 100.637 70.0029 100.829 69.8472C100.978 69.7275 101.128 69.6018 101.278 69.482C101.332 69.4342 101.392 69.3922 101.445 69.3444C101.553 69.2545 101.661 69.1707 101.769 69.0869C102.14 68.7816 102.517 68.4823 102.894 68.1829C103.008 68.0871 103.128 67.9973 103.247 67.9075C103.271 67.8836 103.301 67.8656 103.325 67.8477C103.451 67.7459 103.577 67.6501 103.702 67.5483C103.738 67.5184 103.774 67.4944 103.804 67.4645C103.96 67.3448 104.11 67.225 104.265 67.1053C104.798 66.6922 105.337 66.2791 105.876 65.872C106.139 65.6745 106.396 65.4769 106.66 65.2853C106.923 65.0878 107.187 64.8902 107.45 64.6986C106.857 64.7825 106.097 64.9022 105.199 65.0758C104.774 65.1596 104.163 65.429 103.457 65.8182C100.176 67.6262 94.6924 71.9905 94.6924 71.9905L89.2564 72.7269C89.3761 72.679 93.2196 71.1583 93.495 71.0685C93.7704 70.9787 98.1946 67.4705 98.1946 67.4705L91.5553 67.9315L83.1679 71.6792C83.0541 71.7929 82.9464 71.9007 82.8326 72.0144C82.0304 72.8167 81.2402 73.6189 80.4619 74.4091C66.9498 88.1487 56.8561 99.9486 56.8561 99.9486L60.1788 103.163C70.5718 95.4585 78.2049 93.004 78.2049 93.004L77.9415 93.0339Z" fill="#999999"/>
<path d="M91.5793 63.4833L76.5346 74.6486L86.1074 68.7756L91.3817 65.5368L100.23 64.2437L106.959 59.3585C106.959 59.3585 110.378 60.2744 114.161 60.005C114.359 59.8733 114.562 59.7416 114.76 59.6099C114.964 59.4782 115.161 59.3465 115.365 59.2148C115.568 59.0831 115.766 58.9514 115.969 58.8197C116.173 58.6879 116.376 58.5562 116.58 58.4245C117.035 58.1312 117.49 57.8438 117.951 57.5565C118.059 57.4906 118.166 57.4188 118.274 57.3529C119.011 56.8919 119.747 56.4369 120.495 55.9879C120.633 55.9041 120.771 55.8203 120.908 55.7425C120.914 55.7365 120.914 55.7365 120.92 55.7365C121.166 55.5868 121.417 55.4371 121.663 55.2875C121.752 55.2336 121.848 55.1737 121.944 55.1258C122.154 55.0001 122.369 54.8744 122.579 54.7487C122.591 54.7427 122.597 54.7367 122.609 54.7307C122.758 54.6409 122.902 54.5571 123.052 54.4733C123.141 54.4194 123.231 54.3655 123.321 54.3176C123.572 54.168 123.83 54.0243 124.081 53.8746L113.413 44.7269C112.707 45.2537 111.994 45.7985 111.294 46.3433C104.762 51.3961 98.0091 57.3828 91.5793 63.4833Z" fill="#999999"/>
<path d="M72.4756 61.8549L71.5356 63.172C71.5356 63.172 73.6071 62.3399 73.6669 62.2501C73.6909 62.2141 73.8346 61.8549 73.9962 61.4478C74.092 61.2143 74.1878 60.9629 74.2716 60.7414C74.3973 60.4121 74.4991 60.1607 74.4991 60.1607L73.176 60.8671L73.17 60.8731L72.4756 61.8549Z" fill="#999999"/>
<path d="M104.93 63.172L107.875 62.6811L108.432 61.7172H106.893L104.93 63.172Z" fill="#999999"/>
<path d="M111.749 61.6334C111.126 61.6394 110.15 61.7172 110.15 61.7172L110.749 62.3279L111.449 63.0523L111.563 63.172L111.677 62.9206L112.24 61.6693C112.186 61.6394 112 61.6334 111.749 61.6334Z" fill="#999999"/>
<path d="M57.6823 115.107C57.7302 114.377 57.9038 113.485 58.3947 112.521C57.0417 113.365 56.0479 115.143 55.8983 115.43C55.8863 115.454 55.8803 115.472 55.8803 115.472C55.8803 115.472 55.4912 115.688 54.9763 115.975C53.9705 116.538 52.4978 117.376 52.6235 117.376C52.8091 117.376 57.5386 117.131 57.7242 117.005C57.826 116.939 57.6584 116.346 57.6703 115.436C57.6703 115.341 57.6763 115.227 57.6823 115.107Z" fill="#999999"/>
<path d="M56.8981 46.8524L50.6539 78.7258L61.9689 50.6899L57.6225 43.1646L57.4668 43.9488C57.2154 45.1342 57.0298 46.104 56.8981 46.8524Z" fill="#B3B3B3"/>
<path d="M56.8622 99.9488L40.8835 106.678L44.1403 118.119L60.1908 103.164L56.8622 99.9488Z" fill="#B3B3B3"/>
<path d="M113.407 44.7151L124.177 35.4357L124.081 53.8689L113.407 44.7151Z" fill="#B3B3B3"/>
<path d="M86.1013 68.7756L76.5285 74.6486L87.0891 67.7998L91.3756 65.5368L86.1013 68.7756Z" fill="black"/>
<path d="M91.5612 67.9315L82.8924 71.9905L82.8385 72.0145L76.5285 74.6486L83.1738 71.6792L91.5612 67.9315Z" fill="black"/>
<path d="M108.432 61.7172L107.875 62.6811L104.93 63.172L106.893 61.7172H108.432Z" fill="black"/>
<path d="M112.239 61.6634L111.677 62.9146L111.449 63.0523L110.749 62.3279L110.15 61.7172C110.15 61.7172 111.126 61.6394 111.748 61.6334C112 61.6334 112.185 61.6394 112.239 61.6634Z" fill="black"/>
<path d="M58.4006 112.527C57.9097 113.485 57.7301 114.377 57.6882 115.113C57.6822 115.227 57.6762 115.34 57.6762 115.448L54.9822 115.981C55.4911 115.694 55.8862 115.478 55.8862 115.478C55.8862 115.478 55.8922 115.466 55.9041 115.436C56.0538 115.149 57.0476 113.371 58.4006 112.527Z" fill="black"/>
<path d="M103.612 89.7771L103.331 90.4596C103.331 90.4596 103.187 90.1962 102.744 89.7951C103.038 89.7711 103.331 89.7711 103.612 89.7771Z" fill="black"/>
<path d="M74.5049 60.1606C74.5049 60.1606 73.8044 61.9207 73.6727 62.25L73.1758 60.8731L73.1818 60.8671L74.5049 60.1606Z" fill="white"/>
<path d="M106.893 61.7172H108.432L104.93 63.172L106.893 61.7172Z" fill="white"/>
<path d="M110.749 62.3338L110.15 61.7232C110.15 61.7232 111.126 61.6454 111.748 61.6394C111.73 61.6513 111.718 61.6633 111.706 61.6693C111.383 61.8848 111.066 62.1123 110.749 62.3338Z" fill="white"/>
<path d="M58.4005 112.527C57.9096 113.485 57.73 114.377 57.6881 115.113C57.6522 115.119 57.6222 115.125 57.5863 115.131C57.4726 115.149 57.3588 115.173 57.2451 115.191C57.0954 115.215 56.9517 115.245 56.8021 115.269C56.7003 115.287 56.5985 115.305 56.4967 115.323C56.2992 115.358 56.1076 115.394 55.91 115.43C56.0537 115.149 57.0475 113.371 58.4005 112.527Z" fill="white"/>
<path d="M105.205 65.0758L95.2009 72.7268H89.256H89.262L94.698 71.9905C94.698 71.9905 100.182 67.6261 103.463 65.8181C104.367 65.435 105.151 65.0997 105.205 65.0758Z" fill="white"/>
<path d="M79.8509 99.7091L79.6833 99.9186L73.5169 107.612C73.5169 107.612 64.0758 110.503 61.4058 112.838C62.1361 111.054 71.9185 105.923 71.9185 105.923L75.9775 100.523L76.2888 100.326L77.5879 99.5055L79.8509 99.7091Z" fill="white"/>
<path d="M98.7392 97.7274L98.0627 99.7091L88.1486 104.72L94.8119 99.3918L98.7392 97.7274Z" fill="white"/>
<path d="M104.253 88.2444L103.612 89.7771L103.331 90.4595C103.331 90.4595 103.187 90.1961 102.744 89.795C102.475 89.5496 102.086 89.2502 101.547 88.921C102.223 88.005 104.253 88.2444 104.253 88.2444Z" fill="white"/>
<path d="M92.447 42.2124L87.3104 48.4985L82.4312 54.4732L81.3716 57.7899L76.3487 60.5019L79.1146 57.7001L80.5873 53.8686L85.9035 48.6481L92.447 42.2124Z" fill="white"/>
<path d="M98.1943 67.4705L91.579 69.1946L80.4676 74.4091L76.5283 74.6486L83.1736 71.6791L91.561 67.9314L98.1943 67.4705Z" fill="white"/>
</svg>
